<svg version="1.1" xmlns="http://www.w3.org/2000/svg" xmlns:xlink="http://www.w3.org/1999/xlink" width='16px' height='16px' viewBox="0 0 172 172"><g transform="translate(4.73,4.73) scale(0.945,0.945)"><g fill="none" fill-rule="nonzero" stroke="none" stroke-width="none" stroke-linecap="butt" stroke-linejoin="none" stroke-miterlimit="10" stroke-dasharray="" stroke-dashoffset="0" font-family="none" font-weight="none" font-size="none" text-anchor="none" style="mix-blend-mode: normal"><g fill="#e74c3c" stroke="#000000" stroke-width="10" stroke-linejoin="round"><path d="M86,157.66667c-39.41667,0 -71.66667,-32.25 -71.66667,-71.66667c0,-39.41667 32.25,-71.66667 71.66667,-71.66667c39.41667,0 71.66667,32.25 71.66667,71.66667c0,39.41667 -32.25,71.66667 -71.66667,71.66667z"/></g><path d="M0,172v-172h172v172z" fill="none" stroke="none" stroke-width="1" stroke-linejoin="miter"/><g fill="#e74c3c" stroke="none" stroke-width="1" stroke-linejoin="miter"><path d="M86,157.66667c-39.41667,0 -71.66667,-32.25 -71.66667,-71.66667c0,-39.41667 32.25,-71.66667 71.66667,-71.66667c39.41667,0 71.66667,32.25 71.66667,71.66667c0,39.41667 -32.25,71.66667 -71.66667,71.66667z"/></g><path d="" fill="none" stroke="none" stroke-width="1" stroke-linejoin="miter"/></g></g></svg>