<svg version="1.1" xmlns="http://www.w3.org/2000/svg" xmlns:xlink="http://www.w3.org/1999/xlink" width='16px' height='16px' viewBox="0 0 172 172"><g transform="translate(3.354,3.354) scale(0.961,0.961)"><g fill="none" fill-rule="nonzero" stroke="none" stroke-width="none" stroke-linecap="butt" stroke-linejoin="none" stroke-miterlimit="10" stroke-dasharray="" stroke-dashoffset="0" font-family="none" font-weight="none" font-size="none" text-anchor="none" style="mix-blend-mode: normal"><g fill="#000000" stroke="#000000" stroke-width="7" stroke-linejoin="round"><path d="M130.72,158.24h-89.44c-15.17384,0 -27.52,-12.34616 -27.52,-27.52v-89.44c0,-15.17384 12.34616,-27.52 27.52,-27.52h89.44c15.17384,0 27.52,12.34616 27.52,27.52v89.44c0,15.17384 -12.34616,27.52 -27.52,27.52z"/></g><path d="M0,172v-172h172v172z" fill="none" stroke="none" stroke-width="1" stroke-linejoin="miter"/><g fill="#e74c3c" stroke="none" stroke-width="1" stroke-linejoin="miter"><path d="M130.72,158.24h-89.44c-15.17384,0 -27.52,-12.34616 -27.52,-27.52v-89.44c0,-15.17384 12.34616,-27.52 27.52,-27.52h89.44c15.17384,0 27.52,12.34616 27.52,27.52v89.44c0,15.17384 -12.34616,27.52 -27.52,27.52z"/></g><path d="" fill="none" stroke="none" stroke-width="1" stroke-linejoin="miter"/></g></g></svg>