<svg version="1.1" xmlns="http://www.w3.org/2000/svg" xmlns:xlink="http://www.w3.org/1999/xlink"  width='16px' height='16px' viewBox="0 0 172 172"><g transform="translate(4.73,4.73) scale(0.945,0.945)"><g fill="none" fill-rule="nonzero" stroke="none" stroke-width="none" stroke-linecap="butt" stroke-linejoin="none" stroke-miterlimit="10" stroke-dasharray="" stroke-dashoffset="0" font-family="none" font-weight="none" font-size="none" text-anchor="none" style="mix-blend-mode: normal"><g fill="#e74c3c" stroke="#000000" stroke-width="10" stroke-linejoin="round"><path d="M144.74517,146.91667h-117.49033c-4.66908,0 -8.84725,-2.41517 -11.18,-6.45717c-2.33275,-4.042 -2.33275,-8.87233 0,-12.91433l58.74517,-101.74517c2.33275,-4.042 6.51092,-6.45358 11.18,-6.45358c4.66908,0 8.84725,2.41158 11.18,6.45358l58.74517,101.74875c2.33275,4.042 2.33275,8.87233 0,12.91433c-2.33275,4.042 -6.5145,6.45358 -11.18,6.45358z"/></g><path d="M0,172v-172h172v172z" fill="none" stroke="none" stroke-width="1" stroke-linejoin="miter"/><g fill="#e74c3c" stroke="none" stroke-width="1" stroke-linejoin="miter"><path d="M144.74517,146.91667h-117.49033c-4.66908,0 -8.84725,-2.41517 -11.18,-6.45717c-2.33275,-4.042 -2.33275,-8.87233 0,-12.91433l58.74517,-101.74517v0c2.33275,-4.042 6.51092,-6.45358 11.18,-6.45358c4.66908,0 8.84725,2.41158 11.18,6.45358l58.74517,101.74875c2.33275,4.042 2.33275,8.87233 0,12.91433c-2.33275,4.042 -6.5145,6.45358 -11.18,6.45358z"/></g><path d="" fill="none" stroke="none" stroke-width="1" stroke-linejoin="miter"/></g></g></svg>